<svg width="1802" height="300" viewBox="0 0 1802 300" fill="none" xmlns="http://www.w3.org/2000/svg">
    <path
        d="M105.46 298.9C85.7 298.9 67.84 294.34 51.88 285.22C36.1733 276.1 23.6333 263.687 14.26 247.98C5.14 232.02 0.453335 214.16 0.200001 194.4V15.04C0.200001 10.48 1.46667 6.93332 4 4.39998C6.78667 1.61332 10.46 0.219993 15.02 0.219993C19.3267 0.219993 22.7467 1.61332 25.28 4.39998C28.0667 6.93332 29.46 10.48 29.46 15.04V126.76C37.82 114.853 48.84 105.353 62.52 98.26C76.4533 90.9133 91.9067 87.24 108.88 87.24C128.387 87.24 145.867 91.9266 161.32 101.3C176.773 110.42 188.933 122.96 197.8 138.92C206.92 154.88 211.48 172.867 211.48 192.88C211.48 213.147 206.793 231.26 197.42 247.22C188.3 263.18 175.76 275.847 159.8 285.22C143.84 294.34 125.727 298.9 105.46 298.9ZM105.46 272.3C120.153 272.3 133.327 268.88 144.98 262.04C156.633 254.947 165.753 245.447 172.34 233.54C179.18 221.633 182.6 208.08 182.6 192.88C182.6 177.933 179.18 164.507 172.34 152.6C165.753 140.44 156.633 130.94 144.98 124.1C133.327 117.26 120.153 113.84 105.46 113.84C91.02 113.84 77.9733 117.26 66.32 124.1C54.6667 130.94 45.5467 140.44 38.96 152.6C32.3733 164.507 29.08 177.933 29.08 192.88C29.08 208.08 32.3733 221.633 38.96 233.54C45.5467 245.447 54.6667 254.947 66.32 262.04C77.9733 268.88 91.02 272.3 105.46 272.3ZM289.772 297C285.212 297 281.539 295.733 278.752 293.2C276.219 290.413 274.952 286.74 274.952 282.18V103.96C274.952 99.4 276.219 95.8533 278.752 93.32C281.539 90.5333 285.212 89.14 289.772 89.14C294.079 89.14 297.499 90.5333 300.032 93.32C302.819 95.8533 304.212 99.4 304.212 103.96V282.18C304.212 286.74 302.819 290.413 300.032 293.2C297.499 295.733 294.079 297 289.772 297ZM289.392 49.62C283.819 49.62 279.005 47.5933 274.952 43.54C270.899 39.4867 268.872 34.5467 268.872 28.72C268.872 22.3867 270.899 17.4467 274.952 13.9C279.259 10.1 284.199 8.19998 289.772 8.19998C295.092 8.19998 299.779 10.1 303.832 13.9C308.139 17.4467 310.292 22.3867 310.292 28.72C310.292 34.5467 308.265 39.4867 304.212 43.54C300.159 47.5933 295.219 49.62 289.392 49.62ZM659.536 297C655.229 297 651.682 295.733 648.896 293.2C646.109 290.413 644.716 286.867 644.716 282.56V173.12C644.716 155.133 640.029 140.947 630.656 130.56C621.282 119.92 609.249 114.6 594.556 114.6C578.849 114.6 565.929 119.92 555.796 130.56C545.916 140.947 541.102 154.88 541.356 172.36H515.136C515.389 155.387 519.062 140.44 526.156 127.52C533.249 114.6 543.002 104.593 555.416 97.5C567.829 90.4067 581.889 86.86 597.596 86.86C612.542 86.86 625.716 90.4067 637.116 97.5C648.769 104.593 657.762 114.6 664.096 127.52C670.682 140.44 673.976 155.64 673.976 173.12V282.56C673.976 286.867 672.582 290.413 669.796 293.2C667.262 295.733 663.842 297 659.536 297ZM393.536 297C388.976 297 385.302 295.733 382.516 293.2C379.982 290.413 378.716 286.867 378.716 282.56V103.96C378.716 99.6533 379.982 96.1067 382.516 93.32C385.302 90.5333 388.976 89.14 393.536 89.14C397.842 89.14 401.262 90.5333 403.796 93.32C406.582 96.1067 407.976 99.6533 407.976 103.96V282.56C407.976 286.867 406.582 290.413 403.796 293.2C401.262 295.733 397.842 297 393.536 297ZM526.916 297C522.609 297 519.062 295.733 516.276 293.2C513.489 290.413 512.096 286.867 512.096 282.56V173.12C512.096 155.133 507.409 140.947 498.036 130.56C488.662 119.92 476.629 114.6 461.936 114.6C446.229 114.6 433.309 119.793 423.176 130.18C413.042 140.313 407.976 153.613 407.976 170.08H387.076C387.582 153.867 391.129 139.553 397.716 127.14C404.556 114.473 413.802 104.593 425.456 97.5C437.109 90.4067 450.282 86.86 464.976 86.86C479.922 86.86 493.096 90.4067 504.496 97.5C516.149 104.593 525.142 114.6 531.476 127.52C538.062 140.44 541.356 155.64 541.356 173.12V282.56C541.356 286.867 539.962 290.413 537.176 293.2C534.642 295.733 531.222 297 526.916 297ZM832.917 298.9C812.397 298.9 794.157 294.467 778.197 285.6C762.49 276.48 750.077 263.94 740.957 247.98C732.09 232.02 727.657 213.78 727.657 193.26C727.657 172.487 731.837 154.247 740.197 138.54C748.81 122.58 760.59 110.04 775.537 100.92C790.483 91.8 807.71 87.24 827.217 87.24C846.47 87.24 863.19 91.6733 877.377 100.54C891.817 109.153 902.963 121.187 910.817 136.64C918.67 152.093 922.597 169.7 922.597 189.46C922.597 193.513 921.33 196.807 918.797 199.34C916.263 201.62 912.97 202.76 908.917 202.76H747.417V178.44H911.957L895.617 190.22C895.87 175.527 893.21 162.353 887.637 150.7C882.063 139.047 874.083 129.927 863.697 123.34C853.563 116.753 841.403 113.46 827.217 113.46C812.777 113.46 800.11 116.88 789.217 123.72C778.323 130.56 769.837 140.06 763.757 152.22C757.93 164.127 755.017 177.807 755.017 193.26C755.017 208.713 758.31 222.393 764.897 234.3C771.737 246.207 780.983 255.58 792.637 262.42C804.29 269.26 817.717 272.68 832.917 272.68C842.037 272.68 851.157 271.16 860.277 268.12C869.65 264.827 877.123 260.773 882.697 255.96C885.483 253.68 888.65 252.54 892.197 252.54C895.743 252.287 898.783 253.173 901.317 255.2C904.61 258.24 906.257 261.533 906.257 265.08C906.51 268.627 905.117 271.667 902.077 274.2C893.717 281.293 883.077 287.247 870.157 292.06C857.237 296.62 844.823 298.9 832.917 298.9ZM1044.67 298.9C1029.73 298.9 1014.91 296.367 1000.21 291.3C985.521 286.233 973.615 278.633 964.495 268.5C961.708 265.46 960.568 262.04 961.075 258.24C961.581 254.44 963.481 251.147 966.775 248.36C970.321 245.827 973.995 244.813 977.795 245.32C981.595 245.827 984.761 247.473 987.295 250.26C993.375 257.353 1001.35 262.8 1011.23 266.6C1021.37 270.4 1032.51 272.3 1044.67 272.3C1063.42 272.3 1076.97 269.133 1085.33 262.8C1093.69 256.213 1098 248.36 1098.25 239.24C1098.25 230.12 1093.95 222.647 1085.33 216.82C1076.72 210.74 1062.53 206.053 1042.77 202.76C1017.19 198.707 998.441 191.613 986.535 181.48C974.628 171.347 968.675 159.313 968.675 145.38C968.675 132.46 972.095 121.693 978.935 113.08C985.775 104.467 994.895 98.0067 1006.29 93.7C1017.69 89.3933 1030.23 87.24 1043.91 87.24C1060.89 87.24 1075.45 90.1533 1087.61 95.98C1100.03 101.807 1110.03 109.66 1117.63 119.54C1120.17 122.833 1121.18 126.253 1120.67 129.8C1120.17 133.347 1118.14 136.26 1114.59 138.54C1111.55 140.313 1108.01 140.947 1103.95 140.44C1100.15 139.68 1096.86 137.78 1094.07 134.74C1087.74 127.393 1080.39 122.073 1072.03 118.78C1063.67 115.233 1054.05 113.46 1043.15 113.46C1029.22 113.46 1018.07 116.373 1009.71 122.2C1001.35 127.773 997.175 134.867 997.175 143.48C997.175 149.307 998.695 154.373 1001.73 158.68C1005.03 162.987 1010.47 166.787 1018.07 170.08C1025.93 173.373 1036.82 176.16 1050.75 178.44C1069.75 181.48 1084.7 186.04 1095.59 192.12C1106.74 197.947 1114.59 204.913 1119.15 213.02C1123.97 220.873 1126.37 229.487 1126.37 238.86C1126.37 250.767 1122.83 261.28 1115.73 270.4C1108.89 279.267 1099.27 286.233 1086.85 291.3C1074.69 296.367 1060.63 298.9 1044.67 298.9ZM1200.88 227.46L1183.02 208.08L1312.98 90.66C1316.02 87.8733 1319.18 86.6067 1322.48 86.86C1325.77 86.86 1328.81 88.38 1331.6 91.42C1334.38 94.46 1335.65 97.7533 1335.4 101.3C1335.4 104.593 1333.88 107.507 1330.84 110.04L1200.88 227.46ZM1191.38 297C1187.07 297 1183.52 295.733 1180.74 293.2C1178.2 290.413 1176.94 286.867 1176.94 282.56V14.66C1176.94 10.3533 1178.2 6.93332 1180.74 4.39998C1183.52 1.61332 1187.07 0.219993 1191.38 0.219993C1195.68 0.219993 1199.1 1.61332 1201.64 4.39998C1204.42 6.93332 1205.82 10.3533 1205.82 14.66V282.56C1205.82 286.867 1204.42 290.413 1201.64 293.2C1199.1 295.733 1195.68 297 1191.38 297ZM1331.98 295.1C1328.68 297.887 1325.26 299.027 1321.72 298.52C1318.17 298.267 1315.13 296.493 1312.6 293.2L1227.86 189.08L1248.38 170.84L1333.88 276.1C1336.41 279.14 1337.55 282.433 1337.3 285.98C1337.04 289.273 1335.27 292.313 1331.98 295.1ZM1469.71 298.9C1449.19 298.9 1430.95 294.467 1414.99 285.6C1399.29 276.48 1386.87 263.94 1377.75 247.98C1368.89 232.02 1364.45 213.78 1364.45 193.26C1364.45 172.487 1368.63 154.247 1376.99 138.54C1385.61 122.58 1397.39 110.04 1412.33 100.92C1427.28 91.8 1444.51 87.24 1464.01 87.24C1483.27 87.24 1499.99 91.6733 1514.17 100.54C1528.61 109.153 1539.76 121.187 1547.61 136.64C1555.47 152.093 1559.39 169.7 1559.39 189.46C1559.39 193.513 1558.13 196.807 1555.59 199.34C1553.06 201.62 1549.77 202.76 1545.71 202.76H1384.21V178.44H1548.75L1532.41 190.22C1532.67 175.527 1530.01 162.353 1524.43 150.7C1518.86 139.047 1510.88 129.927 1500.49 123.34C1490.36 116.753 1478.2 113.46 1464.01 113.46C1449.57 113.46 1436.91 116.88 1426.01 123.72C1415.12 130.56 1406.63 140.06 1400.55 152.22C1394.73 164.127 1391.81 177.807 1391.81 193.26C1391.81 208.713 1395.11 222.393 1401.69 234.3C1408.53 246.207 1417.78 255.58 1429.43 262.42C1441.09 269.26 1454.51 272.68 1469.71 272.68C1478.83 272.68 1487.95 271.16 1497.07 268.12C1506.45 264.827 1513.92 260.773 1519.49 255.96C1522.28 253.68 1525.45 252.54 1528.99 252.54C1532.54 252.287 1535.58 253.173 1538.11 255.2C1541.41 258.24 1543.05 261.533 1543.05 265.08C1543.31 268.627 1541.91 271.667 1538.87 274.2C1530.51 281.293 1519.87 287.247 1506.95 292.06C1494.03 296.62 1481.62 298.9 1469.71 298.9ZM1787.11 297C1782.8 297 1779.26 295.607 1776.47 292.82C1773.68 290.033 1772.29 286.613 1772.29 282.56V183.76C1772.29 168.053 1769.25 155.133 1763.17 145C1757.34 134.867 1749.24 127.267 1738.85 122.2C1728.72 117.133 1717.19 114.6 1704.27 114.6C1691.86 114.6 1680.58 117.007 1670.45 121.82C1660.57 126.633 1652.72 133.22 1646.89 141.58C1641.06 149.94 1638.15 159.44 1638.15 170.08H1617.25C1617.76 154.12 1622.06 139.933 1630.17 127.52C1638.28 114.853 1649.04 104.973 1662.47 97.88C1675.9 90.5333 1690.84 86.86 1707.31 86.86C1725.3 86.86 1741.38 90.66 1755.57 98.26C1769.76 105.607 1780.9 116.5 1789.01 130.94C1797.37 145.38 1801.55 162.987 1801.55 183.76V282.56C1801.55 286.613 1800.16 290.033 1797.37 292.82C1794.58 295.607 1791.16 297 1787.11 297ZM1623.71 297C1619.15 297 1615.48 295.733 1612.69 293.2C1610.16 290.413 1608.89 286.867 1608.89 282.56V103.96C1608.89 99.4 1610.16 95.8533 1612.69 93.32C1615.48 90.5333 1619.15 89.14 1623.71 89.14C1628.02 89.14 1631.44 90.5333 1633.97 93.32C1636.76 95.8533 1638.15 99.4 1638.15 103.96V282.56C1638.15 286.867 1636.76 290.413 1633.97 293.2C1631.44 295.733 1628.02 297 1623.71 297Z"
        fill="currentColor" />
</svg>