<svg width="445" height="629" viewBox="0 0 445 629" fill="none" xmlns="http://www.w3.org/2000/svg">
    <path
        d="M221.6 629C180 629 142.4 619.4 108.8 600.2C75.7333 581 49.3333 554.867 29.6 521.8C10.4 488.2 0.533337 450.6 2.86102e-06 409V31.4C2.86102e-06 21.8 2.66667 14.3333 8 8.99997C13.8667 3.13331 21.6 0.199986 31.2 0.199986C40.2667 0.199986 47.4667 3.13331 52.8 8.99997C58.6667 14.3333 61.6 21.8 61.6 31.4V266.6C79.2 241.533 102.4 221.533 131.2 206.6C160.533 191.133 193.067 183.4 228.8 183.4C269.867 183.4 306.667 193.267 339.2 213C371.733 232.2 397.333 258.6 416 292.2C435.2 325.8 444.8 363.667 444.8 405.8C444.8 448.467 434.933 486.6 415.2 520.2C396 553.8 369.6 580.467 336 600.2C302.4 619.4 264.267 629 221.6 629ZM221.6 573C252.533 573 280.267 565.8 304.8 551.4C329.333 536.467 348.533 516.467 362.4 491.4C376.8 466.333 384 437.8 384 405.8C384 374.333 376.8 346.067 362.4 321C348.533 295.4 329.333 275.4 304.8 261C280.267 246.6 252.533 239.4 221.6 239.4C191.2 239.4 163.733 246.6 139.2 261C114.667 275.4 95.4667 295.4 81.6 321C67.7333 346.067 60.8 374.333 60.8 405.8C60.8 437.8 67.7333 466.333 81.6 491.4C95.4667 516.467 114.667 536.467 139.2 551.4C163.733 565.8 191.2 573 221.6 573Z"
        fill="currentColor" />
</svg>